<?xml version="1.0" encoding="UTF-8"?>
<svg width="400" height="400" viewBox="0 0 400 400" fill="none" xmlns="http://www.w3.org/2000/svg">
  <!-- Background Elements -->
  <circle cx="200" cy="200" r="160" fill="#f8f9fa" opacity="0.3"/>
  <circle cx="200" cy="200" r="120" fill="#f1f3f5" opacity="0.5"/>
  
  <!-- GitHub Logo Stylized -->
  <path d="M200 100C144.8 100 100 144.8 100 200C100 244.2 130.4 281.8 171.8 295.8C177.8 296.8 180 293 180 289.8C180 286.8 179.8 277.6 179.8 267.6C150 274 142.2 258.6 139.4 251.8C137.8 248.4 131 237 125 234C120 231.6 114 225.2 124.8 225C135 224.8 142.4 235 145 238.6C155 258 172.6 252.4 180.4 249.2C181.4 240.4 184.4 234.6 187.6 231.2C163.4 227.8 138 216.8 138 178C138 164.8 143 154 145.4 146C144.2 143 140 129.6 146.6 115C146.6 115 155.4 112 180 128.8C186.6 127 193.4 126.2 200.2 126.2C207 126.2 213.8 127 220.4 128.8C245 111.8 253.8 115 253.8 115C260.4 129.6 256.2 143 255 146C257.4 154 262.4 164.6 262.4 178C262.4 217 237 227.8 212.8 231.2C217 235.4 220.6 243.4 220.6 256C220.6 274 220.4 285.4 220.4 289.8C220.4 293 222.6 296.8 228.6 295.8C269.6 281.6 300 244 300 200C300 144.8 255.2 100 200 100Z" fill="#646cff"/>
  
  <!-- Code Window -->
  <rect x="150" y="180" width="200" height="140" rx="8" fill="#ffffff" stroke="#646cff" stroke-width="2"/>
  <rect x="150" y="180" width="200" height="25" rx="8" fill="#646cff"/>
  <circle cx="165" cy="192.5" r="5" fill="#ff5555"/>
  <circle cx="185" cy="192.5" r="5" fill="#ffbd2e"/>
  <circle cx="205" cy="192.5" r="5" fill="#27c93f"/>
  
  <!-- Code Lines -->
  <rect x="165" y="220" width="170" height="6" rx="3" fill="#e9ecef"/>
  <rect x="165" y="240" width="120" height="6" rx="3" fill="#e9ecef"/>
  <rect x="165" y="260" width="150" height="6" rx="3" fill="#e9ecef"/>
  <rect x="165" y="280" width="100" height="6" rx="3" fill="#e9ecef"/>
  
  <!-- Connection Lines -->
  <path d="M200 100C200 80 220 80 240 100" stroke="#646cff" stroke-width="2" stroke-dasharray="4 4"/>
  <path d="M260 140C280 140 280 160 260 180" stroke="#646cff" stroke-width="2" stroke-dasharray="4 4"/>
  
  <!-- Decorative Elements -->
  <circle cx="120" cy="120" r="15" fill="#646cff" opacity="0.2"/>
  <circle cx="280" cy="100" r="10" fill="#646cff" opacity="0.2"/>
  <circle cx="300" cy="220" r="20" fill="#646cff" opacity="0.2"/>
  <circle cx="100" cy="250" r="25" fill="#646cff" opacity="0.2"/>
  
  <!-- Small GitHub Icons -->
  <circle cx="120" cy="300" r="15" fill="#f8f9fa" stroke="#646cff" stroke-width="1.5"/>
  <path d="M120 290C112.4 290 106 296.4 106 304C106 310.1 110.1 315.4 115.9 317.7C116.9 317.9 117.3 317.3 117.3 316.7C117.3 316.2 117.3 314.7 117.3 313.1C111.5 314.3 110.3 311.1 110.3 311.1C109.4 309.1 108.1 308.5 108.1 308.5C106.3 307.4 108.2 307.4 108.2 307.4C110.2 307.5 111.2 309.3 111.2 309.3C113 312.4 116 311.2 117.4 310.6C117.6 309.2 118.1 308.2 118.7 307.6C114 307 109.1 305.3 109.1 300C109.1 298.2 109.9 296.7 111.2 295.5C111 294.9 110.3 293 111.4 290.8C111.4 290.8 113.1 290.2 117.3 293.1C118.5 292.6 119.8 292.4 121.1 292.4C122.4 292.4 123.7 292.6 124.9 293.1C129.1 290.2 130.8 290.8 130.8 290.8C131.9 293 131.2 294.9 131 295.5C132.3 296.7 133.1 298.2 133.1 300C133.1 305.3 128.2 307 123.5 307.6C124.3 308.4 125 309.9 125 312.2C125 315.5 124.9 316 124.9 316.7C124.9 317.3 125.3 318 126.3 317.7C132.1 315.4 136.2 310.1 136.2 304C136 296.4 129.6 290 120 290Z" fill="#646cff"/>
  
  <circle cx="280" cy="320" r="15" fill="#f8f9fa" stroke="#646cff" stroke-width="1.5"/>
  <path d="M280 310C272.4 310 266 316.4 266 324C266 330.1 270.1 335.4 275.9 337.7C276.9 337.9 277.3 337.3 277.3 336.7C277.3 336.2 277.3 334.7 277.3 333.1C271.5 334.3 270.3 331.1 270.3 331.1C269.4 329.1 268.1 328.5 268.1 328.5C266.3 327.4 268.2 327.4 268.2 327.4C270.2 327.5 271.2 329.3 271.2 329.3C273 332.4 276 331.2 277.4 330.6C277.6 329.2 278.1 328.2 278.7 327.6C274 327 269.1 325.3 269.1 320C269.1 318.2 269.9 316.7 271.2 315.5C271 314.9 270.3 313 271.4 310.8C271.4 310.8 273.1 310.2 277.3 313.1C278.5 312.6 279.8 312.4 281.1 312.4C282.4 312.4 283.7 312.6 284.9 313.1C289.1 310.2 290.8 310.8 290.8 310.8C291.9 313 291.2 314.9 291 315.5C292.3 316.7 293.1 318.2 293.1 320C293.1 325.3 288.2 327 283.5 327.6C284.3 328.4 285 329.9 285 332.2C285 335.5 284.9 336 284.9 336.7C284.9 337.3 285.3 338 286.3 337.7C292.1 335.4 296.2 330.1 296.2 324C296 316.4 289.6 310 280 310Z" fill="#646cff"/>
</svg>
